<?xml version="1.0" encoding="UTF-8"?><svg id="uuid-c485eccc-831a-4890-928f-3f82b337abc1" xmlns="http://www.w3.org/2000/svg" xmlns:xlink="http://www.w3.org/1999/xlink" viewBox="0 0 358.99 83.47"><defs><style>.uuid-44c8152d-9b76-412e-b15d-ee0abd0b039b{fill:#231f20;}.uuid-cfb001b0-5544-4384-89d7-5980cdb8814d{fill:url(#uuid-20dab9a4-6f9a-4b6f-a3a4-132486506738);}.uuid-866d3547-694f-4cb9-a094-db878b76e238{fill:url(#uuid-5d3426c5-936f-48e4-8692-8b0cb41ecfca);}.uuid-4b8b6303-647f-4390-935c-b0e3bf3ceddb{fill:url(#uuid-684eab63-2e84-48bc-9965-c7ed329069a1);}.uuid-4bee5b27-0b9f-4ab4-9690-fb9f15b3fdc5{fill:#191919;}.uuid-3acf3456-5730-43e8-9935-d4492af995f6{fill:#1a1a1a;}</style><linearGradient id="uuid-5d3426c5-936f-48e4-8692-8b0cb41ecfca" x1="180.6" y1="472.24" x2="180.6" y2="471.41" gradientTransform="translate(0 -1290.38)" gradientUnits="userSpaceOnUse"><stop offset="0" stop-color="#0b8db9"/><stop offset="1" stop-color="#00a9d3"/></linearGradient><linearGradient id="uuid-684eab63-2e84-48bc-9965-c7ed329069a1" x1="180.46" y1="-27.48" x2="180.46" y2="-34.71" gradientTransform="translate(0 86) scale(1 -1)" gradientUnits="userSpaceOnUse"><stop offset="0" stop-color="#0b8db9"/><stop offset="1" stop-color="#00a9d3"/></linearGradient><linearGradient id="uuid-20dab9a4-6f9a-4b6f-a3a4-132486506738" x1="153.93" y1="-757.51" x2="153.93" y2="-824.12" gradientTransform="translate(0 86) scale(1 -1)" gradientUnits="userSpaceOnUse"><stop offset="0" stop-color="#0b8db9"/><stop offset="1" stop-color="#00a9d3"/></linearGradient></defs><path class="uuid-4bee5b27-0b9f-4ab4-9690-fb9f15b3fdc5" d="M12.81,65.95H.55c-.35,0-.61-.32-.54-.66L8.18,26.67c.05-.25.28-.43.54-.43h12.26c.35,0,.61.32.54.66l-8.17,38.62c-.05.25-.28.43-.54.43Z"/><path class="uuid-4bee5b27-0b9f-4ab4-9690-fb9f15b3fdc5" d="M45.29,25.28c5.78,0,11.5,1.5,16.09,4.18.28.16.35.55.15.8l-6.59,8.5c-.17.21-.45.27-.69.13-3.26-1.83-8.86-2.82-12.26-2.82-2.46,0-3.72.84-3.72,1.56,0,.84,2.46,1.38,8.28,2.22,7.98,1.14,12.36,6.72,12.36,12.18,0,7.5-5.04,14.64-21.3,14.64-7.57,0-13.08-1.61-17.12-4.63-.25-.19-.28-.55-.08-.79l7.68-8.99c.18-.21.5-.26.72-.09,2.14,1.67,7.23,3.1,12.58,3.1,2.4,0,4.5-.9,4.5-1.8,0-1.32-4.8-1.08-9.42-2.16-5.4-1.2-11.22-5.52-11.22-12.06,0-11.1,9.24-13.98,20.04-13.98h0Z"/><path class="uuid-4bee5b27-0b9f-4ab4-9690-fb9f15b3fdc5" d="M80.75,66.67c-10.26,0-17.64-4.98-17.64-14.34,0-1.38.18-2.82,1.26-8.04,2.58-12.18,13.38-18.72,25.14-18.72,10.32,0,17.64,5.04,17.64,14.34,0,1.38-.12,2.82-1.26,8.04-2.52,12.06-13.32,18.72-25.14,18.72ZM94.01,39.92c0-1.86-2.04-3.18-4.68-3.18-5.88,0-10.98,4.86-12.12,10.2-.84,3.96-.96,4.86-.96,5.4,0,1.5,1.44,3.24,4.62,3.24,5.88,0,11.04-4.98,12.18-10.32.84-4.08.96-4.86.96-5.34Z"/><path class="uuid-4bee5b27-0b9f-4ab4-9690-fb9f15b3fdc5" d="M228.05,53.35c0,9.72-9.06,13.08-19.5,13.08-8.34,0-14.58-2.82-14.58-9.3,0-4.44,2.58-8.28,7.8-11.22-1.74-1.5-3.06-4.56-3.06-7.38,0-9.6,8.52-12.96,17.46-12.96,10.62,0,14.1,3.24,14.1,10.14,0,5.28-2.7,7.86-6.3,10.2,2.34,1.5,4.08,3.84,4.08,7.44h0ZM207.35,54.26c0,1.14,1.32,1.86,3.3,1.86,2.28,0,4.2-.96,4.2-2.46,0-1.02-1.38-1.56-3.36-1.56-2.16,0-3.78.6-4.08,1.86,0,.12-.06.24-.06.3ZM211.79,38.71c0,1.08.96,1.68,2.22,1.68,1.62,0,3.3-.96,3.3-2.58,0-1.08-1.02-1.8-2.34-1.8s-2.82.9-3.12,2.22c-.06.18-.06.3-.06.48h0Z"/><path class="uuid-4bee5b27-0b9f-4ab4-9690-fb9f15b3fdc5" d="M264.24,61.03c.24.19.27.56.06.78-2.78,2.95-6.27,4.72-10.91,4.72-6.33,0-10.73-5.04-10.73-10.4,0-.94.18-2.41.54-3.82,1.51-5.87,5.83-10.62,14.69-10.62,4.62,0,7.69,1.62,9.4,5.02.12.25.03.56-.21.7l-5.7,3.29c-.22.13-.5.08-.66-.12-.67-.86-1.94-1.48-3.4-1.48-4.03,0-5.83,3.31-6.44,4.97l-.25.68c-.07.22-.07.43-.07.65,0,1.98,1.19,3.67,3.78,3.67,1.49,0,3.21-.93,4.25-1.93.19-.18.48-.21.68-.05l4.98,3.93h0Z"/><path class="uuid-4bee5b27-0b9f-4ab4-9690-fb9f15b3fdc5" d="M277.98,66.39c-6.16,0-10.58-2.99-10.58-8.6,0-.83.11-1.69.76-4.82,1.55-7.31,8.03-11.23,15.08-11.23,6.19,0,10.58,3.02,10.58,8.6,0,.83-.07,1.69-.76,4.82-1.51,7.24-7.99,11.23-15.08,11.23ZM285.93,50.33c0-1.12-1.22-1.91-2.81-1.91-3.53,0-6.59,2.92-7.27,6.12-.5,2.38-.58,2.92-.58,3.24,0,.9.86,1.94,2.77,1.94,3.53,0,6.62-2.99,7.31-6.19.5-2.45.58-2.92.58-3.2Z"/><path class="uuid-4bee5b27-0b9f-4ab4-9690-fb9f15b3fdc5" d="M331.71,42.13c.34,0,.59.31.52.64l-2.96,13.9c-1.12,5.36-7.02,9.68-13.53,9.68-5.83,0-9.97-3.38-9.97-7.99,0-.53.07-1.11,3.18-15.81.05-.25.27-.43.52-.43h6.93c.34,0,.59.33.52.66-2.56,11.08-2.87,13.89-2.87,14.13,0,1.73.76,2.34,2.52,2.34,2.02,0,4.54-1.94,5-4.1l2.75-12.61c.05-.24.27-.42.52-.42h6.87Z"/><path class="uuid-4bee5b27-0b9f-4ab4-9690-fb9f15b3fdc5" d="M358.85,43.02l-10.04,11.14c-.15.16-.18.4-.08.6l5.24,10.41c.18.36-.08.78-.48.78h-7.72c-.21,0-.4-.12-.49-.31l-3.81-8.15h-.14l-1.71,8.03c-.05.25-.27.42-.52.42h-6.93c-.34,0-.59-.31-.52-.65l4.81-22.76c.05-.25.27-.42.52-.42h6.97c.34,0,.6.31.52.65l-1.52,7.09h.14l6.1-7.54c.1-.13.25-.2.42-.2h8.84c.46,0,.71.55.4.89v.02Z"/><circle class="uuid-44c8152d-9b76-412e-b15d-ee0abd0b039b" cx="234.1" cy="62.8" r="3.2"/><circle class="uuid-44c8152d-9b76-412e-b15d-ee0abd0b039b" cx="298.72" cy="62.8" r="3.2"/><path class="uuid-866d3547-694f-4cb9-a094-db878b76e238" d="M181.18,24.96c0,.28-.21.41-.55.41h-.61v-.84h.62c.35,0,.54.13.54.42h0Z"/><path class="uuid-4b8b6303-647f-4390-935c-b0e3bf3ceddb" d="M180.46,21.95h0c-2.04.01-3.57,1.65-3.57,3.62v.02c0,1.97,1.53,3.59,3.57,3.59s3.57-1.65,3.57-3.62v-.02c0-1.97-1.53-3.59-3.57-3.59ZM181.12,27.62l-.8-1.21h-.3v1.21h-1.44v-4.26h2.08c1.21,0,1.95.51,1.95,1.47,0,.67-.32,1.09-.86,1.32l.99,1.46h-1.62Z"/><path class="uuid-cfb001b0-5544-4384-89d7-5980cdb8814d" d="M183.72,0h-54.5l-13.68,57.63c-1.09,4.63,6.02,8.98,6.02,8.98h11.39l-7.18-44.71h14.37l6.18,38.15,23.55-38.15h4.95l-27.5,44.71h30.81l14.31-60.26S188.81,0,183.71,0h.01ZM184.5,25.57c0,2.2-1.78,4.05-4.03,4.05h0c-2.25.01-4.03-1.83-4.03-4.02v-.02c0-2.2,1.78-4.06,4.03-4.06s4.03,1.84,4.03,4.03v.02Z"/><path class="uuid-3acf3456-5730-43e8-9935-d4492af995f6" d="M212.41,78.8c0-1.54.61-3.23,1.93-4.55,1.09-1.1,2.74-1.89,4.9-1.89,2.3,0,3.92,1.22,4.37,3.1l-3.18,1.38c-.23-.87-.85-1.29-1.66-1.29-.71,0-1.31.29-1.75.73-.56.56-.88,1.38-.88,2.19,0,1.17.73,1.83,1.67,1.83.82,0,1.49-.4,2.07-1.11l2.46,1.95c-1.07,1.4-2.62,2.33-4.88,2.33-2.98,0-5.05-1.81-5.05-4.67h0Z"/><path class="uuid-3acf3456-5730-43e8-9935-d4492af995f6" d="M235.83,77.2c0,1.69-.7,3.27-1.86,4.43s-2.66,1.83-4.41,1.83c-3.13,0-5.29-2.1-5.29-4.82,0-1.69.7-3.27,1.86-4.43,1.11-1.12,2.66-1.83,4.41-1.83,3.13,0,5.29,2.1,5.29,4.82ZM231.39,79.65c.55-.55.87-1.35.87-2.13,0-1.13-.68-2.01-1.96-2.01-.64,0-1.17.26-1.58.67-.55.55-.87,1.35-.87,2.13,0,1.13.68,2.01,1.96,2.01.64,0,1.17-.26,1.58-.67Z"/><path class="uuid-3acf3456-5730-43e8-9935-d4492af995f6" d="M239.03,72.59h3.33l2.42,5.08,1.37-5.08h3.53l-2.86,10.65h-3.16l-2.53-5.29-1.43,5.29h-3.53l2.86-10.65Z"/><path class="uuid-3acf3456-5730-43e8-9935-d4492af995f6" d="M253.67,75.6h-3.13l.81-3.01h9.83l-.81,3.01h-3.13l-2.05,7.64h-3.56l2.05-7.64h0Z"/><path class="uuid-3acf3456-5730-43e8-9935-d4492af995f6" d="M265.3,72.51h3.53l1.61,10.73h-3.79l-.18-1.43h-3.73l-.93,1.43h-3.88l7.37-10.73h0ZM266.28,79.28l-.29-2.59-1.66,2.59h1.95Z"/><path class="uuid-3acf3456-5730-43e8-9935-d4492af995f6" d="M274.51,72.59h3.56l-2.86,10.65h-3.56l2.86-10.65Z"/><path class="uuid-3acf3456-5730-43e8-9935-d4492af995f6" d="M280.17,72.59h3.33l2.42,5.08,1.37-5.08h3.53l-2.86,10.65h-3.16l-2.53-5.29-1.43,5.29h-3.53l2.86-10.65Z"/><path class="uuid-3acf3456-5730-43e8-9935-d4492af995f6" d="M292.89,72.59h9.08l-.79,2.92h-5.58l-.29,1.08h5.2l-.68,2.57h-5.2l-.32,1.16h5.66l-.78,2.92h-9.16l2.86-10.65h0Z"/><path class="uuid-3acf3456-5730-43e8-9935-d4492af995f6" d="M306.44,80.19h-.88l-.82,3.04h-3.56l2.86-10.64h4.15c1.96,0,3.21.43,3.92,1.14.59.59.84,1.38.84,2.22,0,1-.3,1.9-1.03,2.63-.46.46-1.08.84-1.93,1.11l1.48,3.54h-3.83l-1.19-3.04h-.01ZM307.52,77.65c.7,0,1.22-.2,1.51-.49.2-.2.3-.46.3-.73,0-.21-.08-.41-.23-.56-.2-.2-.55-.3-1.05-.3h-1.26l-.56,2.08h1.29Z"/><path class="uuid-3acf3456-5730-43e8-9935-d4492af995f6" d="M315.8,72.59h3.56l-1.04,3.82,3.54-3.82h4.34l-4.85,4.87,2.22,5.78h-3.79l-1.28-3.42-1.49,1.49-.52,1.93h-3.56l2.87-10.65Z"/><path class="uuid-3acf3456-5730-43e8-9935-d4492af995f6" d="M327.67,72.59h3.56l-2.86,10.65h-3.56l2.86-10.65Z"/><path class="uuid-3acf3456-5730-43e8-9935-d4492af995f6" d="M333.33,72.59h3.33l2.42,5.08,1.37-5.08h3.53l-2.86,10.65h-3.16l-2.53-5.29-1.43,5.29h-3.53l2.86-10.65Z"/><path class="uuid-3acf3456-5730-43e8-9935-d4492af995f6" d="M344.24,78.72c0-1.69.64-3.23,1.78-4.37,1.22-1.22,3.03-1.99,5.25-1.99,2.01,0,3.73.87,4.46,1.76l-2.22,2.28c-.61-.56-1.52-.96-2.46-.96-1,0-1.81.35-2.36.9-.56.56-.87,1.34-.87,2.21,0,1.32.96,1.98,2.07,1.98.38,0,.68-.06.93-.17l.35-1.14h-1.75l.58-2.28h5.13l-1.52,5.43c-1.05.62-2.56,1.1-4.09,1.1-2.65,0-5.26-1.4-5.26-4.75h-.02Z"/></svg>