<svg enable-background="new -0.061 -0.103 106 43" height="201.410123" viewBox="-.061 -.103 106 43" width="496.499374" xmlns="http://www.w3.org/2000/svg"><path d="m105.058 18.679c0 1.027-1.547 1.859-3.456 1.859-1.908 0-3.455-.832-3.455-1.859 0-1.025 1.547-1.858 3.455-1.858 1.909 0 3.456.833 3.456 1.858"/><path d="m13.661 28.97c-7.309-.801-11.824-2.51-13.424-5.082.588 3.086 1.596 8.146 2.403 10.992.174.613.458 1.262.879 1.939 1.867 3.016 4.74 4.283 9.829 4.84 1.212.133 2.362.223 3.385.286l-2.565-12.921c-.163-.017-.332-.034-.507-.054m-6.514-2.111 15.638-12.34-2.472-14.519s-17.708 15.443-18.095 15.776c-1.277 1.104-3.554 3.798-1.19 7.613.894 1.441 2.974 2.611 6.119 3.47" fill="#f37021"/><path d="m20.81 21.712h5.231l-.345 1.572h.042c1.078-1.07 2.576-1.887 4.824-1.887 2.335 0 3.117.773 3.495 1.907.965-1.048 2.58-1.907 4.764-1.907 2.594 0 4.431 1.09 3.819 3.878l-1.732 7.904h-5.404l1.421-6.478c.252-1.154-.162-1.531-1.114-1.531-1.124 0-1.953.524-2.26 1.929l-1.332 6.08h-5.232l1.42-6.478c.251-1.154-.163-1.531-1.113-1.531-1.123 0-1.952.524-2.261 1.929l-1.333 6.081h-5.404z"/><path d="m53.358 21.251c6.096 0 8.323 1.972 7.399 6.185-.929 4.235-4.02 6.205-10.115 6.205s-8.323-1.97-7.395-6.205c.924-4.213 4.015-6.185 10.111-6.185m-1.971 8.993c2.184 0 3.303-.964 3.707-2.808.396-1.804-.297-2.789-2.479-2.789-2.162 0-3.308.985-3.703 2.789-.405 1.844.314 2.808 2.475 2.808"/><path d="m63.309 21.712h5.232l-.313 1.426h.043c.723-.734 2.673-1.74 5.266-1.74 2.985 0 4.949 1.3 4.25 4.486l-1.598 7.296h-5.406l1.3-5.933c.318-1.447-.344-2.076-1.619-2.076-1.427 0-2.687.817-3.105 2.726l-1.159 5.283h-5.403z"/><path d="m89.383 31.964h-.045c-1.211 1.091-2.83 1.677-5.229 1.677-3.504 0-6.315-1.866-5.383-6.122.934-4.256 4.562-6.121 8.064-6.121 2.205 0 3.647.525 4.337 1.615h.045l1.167-5.326h5.403l-3.395 15.493h-5.231zm-1.613-7.045c-1.946 0-3.188 1.134-3.51 2.6-.33 1.509.295 2.6 2.392 2.6 2.076 0 3.173-.964 3.532-2.6.353-1.614-.318-2.6-2.414-2.6"/><path d="m98.372 21.712h5.405l-2.512 11.468h-5.407z"/></svg>